<svg width="780" height="1215" viewBox="0 0 780 1215" fill="none" xmlns="http://www.w3.org/2000/svg">
<path d="M638.3 123.367C672.342 103.713 713.193 80.128 749.201 63.8786C517.332 -101.88 195.37 79.4653 216.178 367.08C300.325 214.082 463.727 119.742 638.3 123.367ZM581.77 560.049C667.834 614.776 731.507 677.89 772.788 749.392C812.104 817.49 832.434 892.009 828.406 971.511C975.314 895.773 1062.87 740.81 1058.22 575.522C929.958 463.438 786.263 387.507 614.182 396.061C601.764 453.169 592.75 508.312 581.77 560.049ZM797.768 989.2C799.83 906.293 784.871 833.213 745.555 765.116C708.205 700.423 651.868 642.153 575.105 595.676C537.706 735.303 474.896 862.363 324.439 908.371C451.258 1025.82 638.153 1058.65 797.768 989.2ZM1052.17 533.611C1029.45 360.6 904.451 214.855 734.577 172.198C482.186 104.544 226.487 274.871 194.505 533.946C481.227 323.009 768.283 293.472 1052.17 533.611ZM299.939 881.658C518.623 828.037 551.659 586.513 579.085 398.165C451.404 412.865 322.954 473.406 189.806 572.978C184.484 689.546 224.471 798.114 299.939 881.658ZM905.408 963.373C1198.41 1062.06 1364.16 625.874 1080.32 503.742C1113.78 679.633 1043.4 856.465 905.408 963.373ZM693.439 132.391C862.259 157.498 999.29 269.056 1059.99 429.223C1178.03 224.875 975.989 -30.7388 693.439 132.391ZM181.848 323.343C-76.2485 395.178 -55.0094 777.88 216.752 816.19C145.983 693.615 138.983 547.843 191.054 417.904C185.54 384.769 181.992 355.038 181.848 323.343ZM816.898 1014.47C616.433 1107.51 371.379 1044.7 242.307 860.454C168.852 1220.65 700.483 1363.15 816.898 1014.47Z" fill="#60A35C" fill-opacity="0.2"/>
</svg>
