<svg width="562" height="558" viewBox="0 0 562 558" fill="none" xmlns="http://www.w3.org/2000/svg">
<path fill-rule="evenodd" clip-rule="evenodd" d="M447.828 41.709C447.828 65.4856 441.043 90.9605 427.472 114.737C442.739 53.5973 410.509 -14.3357 359.619 2.64755C391.85 24.7258 410.509 79.0722 408.813 124.927C379.975 87.5638 334.175 68.8822 257.84 160.592C266.322 180.972 310.426 228.525 329.086 240.413C342.656 248.905 329.086 267.586 317.212 259.095C303.641 250.603 259.537 209.843 242.574 179.273C218.825 208.145 191.684 243.81 164.543 281.173C167.936 293.061 176.417 308.346 186.595 313.441C198.469 321.933 184.899 340.614 173.024 332.123C162.847 327.028 156.061 315.139 149.276 303.251C120.439 344.011 93.2975 386.469 67.8527 427.229C72.9417 434.022 81.4233 454.402 86.5122 457.799C98.3865 471.385 83.1196 491.765 67.8527 471.385C62.7638 464.592 59.3711 457.799 54.2822 449.307L0 558L183.202 456.1C157.758 437.419 123.831 403.452 117.046 394.961C108.564 383.072 127.224 369.486 135.705 383.072C144.187 393.262 188.291 434.022 203.558 442.514C245.966 415.341 288.374 386.469 325.693 359.296C293.463 345.709 252.751 315.139 240.877 298.156C230.699 284.57 249.359 272.681 259.537 284.57C269.715 299.855 323.997 337.218 346.049 344.011C417.294 291.363 463.095 286.268 449.524 187.765C444.435 180.972 439.346 170.782 432.561 158.893C480.058 157.195 532.644 165.687 558.089 206.447C578.445 145.307 515.681 128.324 454.613 140.212C481.754 128.324 510.592 119.832 527.555 119.832C583.534 23.0275 437.65 41.709 447.828 41.709Z" fill="#B03439" fill-opacity="0.2"/>
</svg>
