<svg width="940" height="937" viewBox="0 0 940 937" fill="none" xmlns="http://www.w3.org/2000/svg">
<path fill-rule="evenodd" clip-rule="evenodd" d="M512.622 87.6368C584.685 159.479 602.062 241.511 620.462 329.657C628.128 364.304 635.794 399.97 647.038 437.165C658.282 474.359 676.17 502.892 692.525 528.878C720.124 572.696 740.567 606.324 696.103 660.333L843.296 806.564C848.918 812.169 858.629 812.169 864.762 806.564L865.273 805.545C873.961 797.393 884.694 793.826 895.938 793.826C907.182 793.826 918.426 797.902 927.115 806.564C935.292 815.226 939.892 826.435 939.892 837.644C939.892 848.854 935.292 860.063 927.115 868.215C923.026 872.291 918.426 875.349 913.826 877.387C908.716 879.934 903.605 880.953 898.494 881.463C890.316 881.463 884.183 888.086 884.183 895.22C883.672 900.824 882.65 905.92 880.095 911.015C878.05 915.6 874.984 920.186 870.895 924.262C862.718 932.414 851.474 937 840.23 937C828.986 937 817.742 932.414 809.053 924.262C800.365 915.6 796.276 904.391 796.276 893.182C796.276 881.972 800.365 870.763 809.053 862.101C814.675 855.987 814.675 846.306 809.053 840.701L661.349 694.47C607.684 738.289 574.464 717.399 530.51 690.394C504.444 674.09 475.823 656.257 438.514 645.047C410.404 636.386 382.805 628.743 354.695 621.1C247.367 591.039 137.994 560.468 87.9072 511.045C29.6431 452.45 0 376.023 0 299.595C0 222.659 29.6431 146.231 87.9072 87.6368C146.682 29.0424 223.346 0 300.52 0C377.183 0 453.847 29.5519 512.622 87.6368ZM170.193 169.669C176.326 164.064 176.326 154.383 170.193 148.269C164.571 142.665 154.86 142.665 148.727 148.269C106.818 190.049 85.8629 244.568 85.8629 299.595C85.8629 354.114 106.818 408.632 148.727 450.412C154.86 456.526 164.571 456.526 170.193 450.412C176.326 444.298 176.326 435.127 170.193 429.013C134.416 393.346 116.528 346.471 116.528 299.595C116.528 252.21 134.416 205.335 170.193 169.669Z" fill="#B03439" fill-opacity="0.2"/>
</svg>
