<svg width="579" height="489" viewBox="0 0 579 489" fill="none" xmlns="http://www.w3.org/2000/svg">
<path d="M577.522 305.961C564.531 261.334 464.278 252.321 467.991 189.397C471.711 126.472 424.72 81.1737 365.788 44.8593C365.788 44.8593 310.03 3.74164 250.349 0.182915C190.662 -3.37582 123.416 44.6286 62.8062 176.211C2.18893 307.779 -2.66324 378.527 0.860531 403.816L0.867519 403.802C0.769636 415.191 2.61542 426.797 7.69832 437.585C28.5333 481.758 161.521 502.614 339.94 476.899C518.352 451.163 590.519 350.574 577.522 305.961ZM329.361 450.82C283.091 457.497 240.337 460.574 202.638 460.574C114.006 460.574 53.3326 443.612 40.6218 416.673C22.5135 378.275 51.4938 327.831 51.4938 327.831C51.4938 327.831 144.244 164.213 176.546 123.137C200.506 92.654 257.222 63.7367 305.807 63.7297H305.814C322.705 63.7297 338.611 67.2255 351.818 75.3707C403.032 106.931 443.877 146.301 440.654 200.982C437.417 255.677 524.532 263.501 535.831 302.283C547.122 341.059 484.4 428.468 329.361 450.82Z" fill="#B03439" fill-opacity="0.2"/>
<path d="M188.482 132.5C157.25 172.226 65.6181 333.683 64.6952 335.305C64.4085 335.795 39.889 379.548 54.3406 410.193C62.339 427.154 112.154 445.381 202.64 445.381C241.184 445.381 283.092 442.172 327.188 435.81C453.31 417.618 499.706 359.392 510.914 341.982C521.408 325.678 523.135 312.981 521.261 306.521C518.094 295.663 501.153 285.847 484.772 276.345C457.295 260.411 423.099 240.583 425.49 200.081C427.881 159.599 401.936 124.068 343.842 88.2779C333.746 82.0483 320.952 78.8951 305.801 78.8951C260.831 78.9021 208.813 106.624 188.482 132.5ZM358.685 242.576C358.685 242.576 365.167 252.077 367.537 259.789C369.907 267.48 363.391 275.779 386.512 282.309C409.626 288.825 423.253 332.795 423.253 338.969C423.253 345.129 411.989 354.602 403.103 342.752C394.217 330.901 397.174 311.359 374.647 301.865C352.127 292.377 347.73 261.866 338.962 249.567C301.718 197.249 241.569 308.311 212.344 328.726C183.105 349.156 174.61 335.816 192.984 316.722C211.372 297.635 264.299 241.149 280.589 230.34C296.887 219.538 300.019 207.107 289.615 191.928C279.205 176.75 255.916 121.32 282.393 130.577C282.393 130.577 326.944 214.525 358.685 242.576Z" fill="#B03439" fill-opacity="0.2"/>
</svg>
