<svg width="650" height="655" viewBox="0 0 650 655" fill="none" xmlns="http://www.w3.org/2000/svg">
<path d="M373.427 395.627C371.896 380.447 341.658 372.721 327.321 377.425C312.985 382.13 305.717 407.184 305.717 407.184C305.717 407.184 299.456 388.726 312.117 376.201C312.117 376.201 317.072 367.151 295.592 366.744C274.112 366.337 267.639 382.321 270.607 393.962C273.575 405.603 299.466 433.138 298.448 445.781C298.448 445.781 327.869 417.535 345.247 410.051L343.921 426.513C343.921 426.513 374.767 410.791 373.427 395.627Z" fill="#B03439" fill-opacity="0.2"/>
<path d="M294.333 352.905C303.315 352.584 312.277 353.931 320.769 356.879C311.521 322.481 320.04 299.946 320.04 299.946C318.757 324.527 337.206 359.347 337.206 359.347L367.891 363.981C379.249 348.61 374.305 321.238 374.305 321.238L366.046 324.835C376.121 304.971 360.268 276.403 360.268 276.403L351.865 277.062C347.918 264.021 320.249 243.153 320.249 243.153C294.975 261.666 295.474 278.247 295.474 278.247L286.789 276.911C275.391 297.496 286.495 321.42 286.495 321.42L273.997 319.523C274.943 336.839 294.333 352.905 294.333 352.905Z" fill="#B03439" fill-opacity="0.2"/>
<path d="M229.687 503.674C259.408 498.37 279.722 472.079 279.722 472.079C299.011 459.319 260.399 408.88 260.399 408.88C255.336 400.577 253.135 390.833 254.136 381.149C239.029 372.681 198.208 357.561 98.0502 357.258C98.0502 357.258 212.541 342.557 263.992 364.258C267.43 361.33 271.374 359.06 275.628 357.561C255.497 331.957 257.293 309.646 257.293 309.646L267.193 305.608C264.004 296.192 264.492 285.911 268.558 276.837C221.154 240.322 153.356 253.121 153.356 253.121L163.939 268.159C129.901 253.84 69.8091 300.084 69.8091 300.084L82.9545 315.583C59.2248 324.477 37.7566 338.545 20.0994 356.77C34.6462 381.918 57.002 401.593 83.7511 412.787L65.5347 424.043C87.9692 455.685 146.04 461.315 146.04 461.315L131.453 475.535C133.901 480.567 167.772 489.083 167.772 489.083C188.72 493.177 210.336 492.281 230.882 486.467L229.687 503.674Z" fill="#B03439" fill-opacity="0.2"/>
<path d="M628.195 314.522C617.07 301.309 602.47 291.472 586.045 286.122L601.286 275.799C580.015 264.855 556.274 259.599 532.37 260.539L542.655 251.847C535.486 245.495 517.245 244.978 517.245 244.978C478.714 245.747 445.959 270.971 445.959 270.971L443.168 257.546C399.292 265.564 385.332 307.28 385.332 307.28C391.03 320.876 389.558 343.098 387.577 358.234C410.434 344.779 479.106 310.261 550.541 324.2C491.618 323.16 434.283 343.32 388.981 381.004C390.878 385.947 392.084 391.127 392.566 396.398C391.964 402.85 389.66 409.028 385.89 414.299C382.12 419.57 377.019 423.747 371.106 426.403C377.913 433.118 385.58 438.9 393.908 443.598C421.697 455.236 452.473 457.714 481.766 450.672C475.558 447.709 469.698 444.065 464.295 439.809C522.509 444.497 552.799 415.202 552.799 415.202L533.205 407.849C546.545 407.339 559.544 403.488 571.009 396.649C582.473 389.809 592.036 380.201 598.821 368.706L585.108 360.049C618.437 352.134 628.195 314.522 628.195 314.522Z" fill="#B03439" fill-opacity="0.2"/>
<path d="M480.668 470.646C471.631 475.681 443.649 474.821 443.649 474.821C406.171 472.88 383.318 461.921 370.594 452.855C363.478 462.414 337.511 499.584 324.643 564.024C324.643 564.024 325.77 499.588 343.219 447.611L330.878 454.279L328.269 442.544L303.541 463.54C275.439 526.438 221.83 518.322 221.83 518.322C220.387 520.737 219.519 523.451 219.294 526.254C219.068 529.058 219.49 531.876 220.529 534.491C223.863 542.252 227.988 549.65 232.84 556.569L241.655 542.461C241.655 542.461 244.299 569.523 273.483 594.86L276.664 579.792C276.664 579.792 285.205 600.616 325.657 632.622C325.657 632.622 384.146 595.095 395.838 569.694L405.228 584.697C405.228 584.697 443.81 558.738 445.397 527.204L458 537.781C458 537.781 489.507 512.202 484.8 491.053C481.946 478.411 480.668 470.646 480.668 470.646Z" fill="#B03439" fill-opacity="0.2"/>
<path d="M282.727 259.865C282.727 259.865 299.304 232.657 320.306 222.423C324.085 224.386 327.735 226.586 331.233 229.012C328.125 181.443 326.507 109.828 326.507 109.828C337.557 176.557 348.661 229.971 354.435 255.491C359.169 255.725 363.914 255.534 368.612 254.919C380.033 271.189 379.614 280.352 379.614 280.352C397.292 246.573 445.402 242.771 445.402 242.771C468.123 188.275 452.907 149.563 452.907 149.563L436.716 163.293C436.716 163.293 452.162 135.105 431.641 99.835L420.95 111.66C420.95 111.66 425.152 87.1341 396.21 60.0028L388.815 72.7909C369.356 49.2277 343.765 31.4546 314.848 21.4197C314.848 21.4197 281.717 45.5193 279.861 75.6891L268.359 60.4279C268.359 60.4279 241.619 92.9074 259.773 112.51L241.409 103.42C241.409 103.42 227.331 146.243 244.6 165.774L224.488 164.155C222.759 184.195 227.469 204.268 237.938 221.473C248.407 238.678 264.092 252.123 282.727 259.865Z" fill="#B03439" fill-opacity="0.2"/>
</svg>
