<svg width="839" height="1485" viewBox="0 0 839 1485" fill="none" xmlns="http://www.w3.org/2000/svg">
<path fill-rule="evenodd" clip-rule="evenodd" d="M-139.041 1272.99C-139.041 1272.99 -133.11 1277.08 -122.506 1283.53C-28.5242 1214.54 18.7187 1132.74 18.8867 1132.45C37.3752 1100.43 86.0472 1128.53 67.5586 1160.55C67.3826 1160.86 21.6373 1240.03 -68.9113 1312.83C-56.5437 1318.92 -42.8814 1325.16 -28.1966 1331.2C162.555 1319.37 207.551 1241.34 207.703 1241.08C226.464 1209.41 274.636 1237.96 255.845 1269.65C255.694 1269.91 219.753 1331.97 97.7065 1366.31C194.067 1379.08 298.814 1356.47 368.059 1236.54C527.507 960.363 301.844 796.724 310.352 723.388C318.868 650.038 346.127 599.144 346.127 599.144L229.739 449.451C229.739 449.451 234.417 569.553 112.229 609.002C-9.95082 648.437 -201.561 539.436 -361.009 815.608C-430.253 935.542 -397.461 1037.56 -338.236 1114.62C-369.518 991.754 -333.744 929.598 -333.592 929.335C-315.549 897.221 -266.737 924.664 -284.778 956.742C-284.93 957.005 -329.996 1035 -244.88 1206.1C-232.306 1215.8 -220.067 1224.51 -208.611 1232.17C-190.835 1117.35 -145.145 1038.15 -144.969 1037.85C-126.48 1005.83 -77.8085 1033.93 -96.2971 1065.95C-96.4651 1066.24 -143.68 1148.05 -156.44 1263.94C-145.54 1269.88 -139.041 1272.99 -139.041 1272.99ZM303.17 472.253C325.213 437.24 383.831 356.342 471.449 325.079L416.4 414.926C416.4 414.926 522.536 308.054 663.806 319.808L457.865 442.042C457.865 442.042 612.155 387.294 724.501 416.2L356.24 540.493L303.17 472.253Z" fill="#FFC739" fill-opacity="0.2"/>
</svg>
