<svg width="1471" height="374" viewBox="0 0 1471 374" fill="none" xmlns="http://www.w3.org/2000/svg">
<path d="M975.586 296.858C960.444 296.858 947.367 293.644 936.356 287.215C925.344 280.787 916.855 271.833 910.891 260.354C904.926 248.874 901.829 235.673 901.599 220.75C901.599 206.056 904.582 192.969 910.546 181.49C916.741 170.01 925.229 160.942 936.011 154.284C947.023 147.626 959.641 144.297 973.865 144.297C986.024 144.297 997.15 146.937 1007.24 152.217C1017.34 157.498 1024.91 164.959 1029.96 174.602C1032.71 179.653 1034.2 183.786 1034.43 187C1034.66 189.985 1033.97 192.166 1032.37 193.543C1030.3 195.15 1028.12 195.495 1025.83 194.576C1023.53 193.658 1022.16 192.281 1021.7 190.444C1021.24 188.378 1021.47 186.885 1022.39 185.967C1023.3 184.819 1024.11 183.671 1024.79 182.523C1025.48 181.145 1025.14 179.079 1023.76 176.324C1020.09 169.207 1013.67 163.123 1004.49 158.072C995.545 153.021 985.336 150.495 973.865 150.495C961.018 150.495 949.547 153.48 939.453 159.449C929.588 165.419 921.788 173.684 916.052 184.245C910.546 194.806 907.794 206.974 907.794 220.75C907.794 234.295 910.546 246.349 916.052 256.91C921.558 267.471 929.358 275.736 939.453 281.705C949.547 287.675 961.591 290.659 975.586 290.659C988.433 290.43 999.674 287.789 1009.31 282.738C1019.17 277.458 1026.63 269.996 1031.68 260.354L1036.5 263.453C1030.76 274.014 1022.5 282.279 1011.72 288.249C1001.17 293.988 989.121 296.858 975.586 296.858Z" fill="white"/>
<path d="M1080.5 100.215C1076.83 100.215 1073.73 99.0675 1071.21 96.7716C1068.91 94.2462 1067.77 91.1467 1067.77 87.4733C1067.77 84.0295 1068.91 81.2744 1071.21 79.2081C1073.73 76.9122 1076.83 75.7643 1080.5 75.7643C1083.94 75.7643 1086.69 76.9122 1088.76 79.2081C1091.05 81.2744 1092.2 84.0295 1092.2 87.4733C1092.2 91.1467 1091.05 94.2462 1088.76 96.7716C1086.69 99.0675 1083.94 100.215 1080.5 100.215ZM1048.5 290.659V284.805H1068.8C1072.47 284.805 1074.99 284.116 1076.37 282.738C1077.75 281.131 1078.43 278.606 1078.43 275.162V165.993C1078.43 162.549 1077.75 160.138 1076.37 158.761C1074.99 157.153 1072.47 156.35 1068.8 156.35H1056.07V150.495H1084.63V284.805H1110.44V290.659H1048.5Z" fill="white"/>
<path d="M1146.04 374V368.145H1164.62V166.337C1164.62 162.893 1163.94 160.482 1162.56 159.105C1161.18 157.498 1158.66 156.694 1154.99 156.694H1142.26V150.84H1170.82V190.099C1176.09 176.554 1184.58 165.648 1196.28 157.383C1207.98 148.888 1221.75 144.641 1237.58 144.641C1251.8 144.641 1264.3 147.97 1275.09 154.628C1285.87 161.286 1294.24 170.355 1300.21 181.834C1306.4 193.084 1309.5 206.056 1309.5 220.75C1309.5 235.214 1306.4 248.185 1300.21 259.665C1294.24 271.144 1285.87 280.213 1275.09 286.871C1264.3 293.529 1251.8 296.858 1237.58 296.858C1221.75 296.858 1207.98 292.726 1196.28 284.46C1184.58 275.966 1176.09 264.945 1170.82 251.4V358.503C1170.82 361.947 1171.51 364.357 1172.88 365.735C1174.26 367.342 1176.78 368.145 1180.45 368.145H1193.19V374H1146.04ZM1237.58 290.659C1250.43 290.43 1261.78 287.33 1271.65 281.361C1281.51 275.392 1289.2 267.241 1294.7 256.91C1300.44 246.349 1303.31 234.295 1303.31 220.75C1303.31 207.204 1300.44 195.265 1294.7 184.934C1289.2 174.373 1281.51 166.107 1271.65 160.138C1261.78 153.939 1250.43 150.84 1237.58 150.84C1224.5 150.84 1213.03 153.939 1203.17 160.138C1193.3 166.107 1185.5 174.373 1179.77 184.934C1174.26 195.265 1171.51 207.204 1171.51 220.75C1171.51 234.295 1174.26 246.349 1179.77 256.91C1185.5 267.241 1193.3 275.392 1203.17 281.361C1213.03 287.33 1224.5 290.43 1237.58 290.659Z" fill="white"/>
<path d="M1464.46 207.663C1464.69 196.643 1462.28 186.885 1457.24 178.39C1452.19 169.666 1445.19 162.893 1436.24 158.072C1427.53 153.021 1417.32 150.495 1405.62 150.495C1389.33 150.725 1375.56 156.12 1364.32 166.681C1353.31 177.013 1346.54 190.559 1344.02 207.319L1464.46 207.663ZM1405.62 296.514C1392.54 296.514 1380.73 293.3 1370.17 286.871C1359.85 280.443 1351.7 271.603 1345.74 260.354C1339.77 248.874 1336.79 235.673 1336.79 220.75C1337.02 205.826 1340 192.625 1345.74 181.145C1351.7 169.666 1359.85 160.712 1370.17 154.284C1380.5 147.626 1392.31 144.297 1405.62 144.297C1418.46 144.297 1429.71 147.052 1439.34 152.562C1449.21 157.842 1456.89 165.304 1462.4 174.947C1468.13 184.36 1471 195.265 1471 207.663V213.518L1343.33 213.173L1342.99 220.75C1342.53 233.377 1344.94 244.971 1350.21 255.532C1355.49 266.093 1362.95 274.588 1372.58 281.017C1382.45 287.215 1393.46 290.43 1405.62 290.659C1418.46 290.43 1429.25 288.363 1437.96 284.46C1446.68 280.328 1453.11 275.047 1457.24 268.619L1462.05 272.407C1457.24 279.524 1450.01 285.379 1440.37 289.971C1430.74 294.333 1419.15 296.514 1405.62 296.514Z" fill="white"/>
<path d="M0 290.659V284.805H17.2061C23.6297 284.805 26.8415 281.591 26.8415 275.162V69.9098C26.8415 63.2517 23.7444 59.9226 17.5502 59.9226H0V54.0681H88.0952C110.348 54.0681 127.669 56.8232 140.058 62.3333C152.675 67.8434 161.508 75.3051 166.555 84.7182C171.832 93.9018 174.47 104.348 174.47 116.057C174.47 125.929 171.946 135.228 166.899 143.952C161.852 152.447 153.822 159.564 142.811 165.304C132.028 170.814 117.804 173.913 100.139 174.602L164.834 284.805H191.332V290.659H130.422V284.805H157.608L92.9129 174.947H91.5364C79.6069 174.947 68.7097 174.373 58.8448 173.225C49.2094 172.077 40.6064 170.699 33.0357 169.092V284.46H73.298V290.659H0ZM91.5364 169.092C110.348 169.092 125.26 166.681 136.272 161.86C147.514 156.809 155.658 150.266 160.705 142.23C165.752 133.965 168.276 125.241 168.276 116.057C168.276 105.496 165.981 96.0829 161.393 87.8177C156.805 79.3229 148.661 72.55 136.961 67.4991C125.49 62.4481 109.201 59.9226 88.0952 59.9226H33.0357V163.238C40.377 164.615 48.8653 165.993 58.5007 167.37C68.3655 168.518 79.3774 169.092 91.5364 169.092Z" fill="white"/>
<path d="M340.904 207.663C341.133 196.643 338.724 186.885 333.677 178.39C328.63 169.666 321.633 162.893 312.686 158.072C303.968 153.021 293.759 150.495 282.059 150.495C265.771 150.725 252.006 156.12 240.764 166.681C229.752 177.013 222.985 190.559 220.461 207.319L340.904 207.663ZM282.059 296.514C268.982 296.514 257.167 293.3 246.614 286.871C236.291 280.443 228.147 271.603 222.182 260.354C216.217 248.874 213.235 235.673 213.235 220.75C213.464 205.826 216.446 192.625 222.182 181.145C228.147 169.666 236.291 160.712 246.614 154.284C256.938 147.626 268.753 144.297 282.059 144.297C294.906 144.297 306.147 147.052 315.783 152.562C325.648 157.842 333.333 165.304 338.839 174.947C344.574 184.36 347.442 195.265 347.442 207.663V213.518L219.773 213.173L219.429 220.75C218.97 233.377 221.379 244.971 226.655 255.532C231.932 266.093 239.388 274.588 249.023 281.017C258.888 287.215 269.9 290.43 282.059 290.659C294.906 290.43 305.689 288.363 314.406 284.46C323.124 280.328 329.548 275.047 333.677 268.619L338.495 272.407C333.677 279.524 326.451 285.379 316.815 289.971C307.18 294.333 295.594 296.514 282.059 296.514Z" fill="white"/>
<path d="M437.763 296.514C424.916 296.514 413.445 293.3 403.351 286.871C393.486 280.213 387.866 271.374 386.489 260.354C386.03 255.762 386.145 252.318 386.833 250.022C387.522 247.497 388.439 245.775 389.586 244.856C391.88 242.79 394.519 242.56 397.501 244.168C400.713 245.545 401.745 248.185 400.598 252.088C399.91 254.384 398.763 255.762 397.157 256.221C395.78 256.68 394.633 257.369 393.716 258.287C392.798 259.206 392.683 261.387 393.372 264.831C395.207 272.407 400.483 278.606 409.201 283.427C417.919 288.249 427.44 290.659 437.763 290.659C450.611 290.659 461.393 287.215 470.111 280.328C478.829 273.44 483.073 265.06 482.843 255.188C482.614 247.152 479.632 241.068 473.896 236.936C468.161 232.573 461.164 228.67 452.905 225.227C449.234 223.619 445.105 222.012 440.516 220.405C435.928 218.798 431.799 217.306 428.128 215.928C422.163 213.632 416.428 211.107 410.922 208.352C405.416 205.597 400.942 202.153 397.501 198.02C394.06 193.888 392.339 188.607 392.339 182.179C392.339 170.699 396.583 161.516 405.072 154.628C413.56 147.74 424.113 144.297 436.731 144.297C444.072 144.297 451.758 145.789 459.787 148.773C467.817 151.758 474.24 156.809 479.058 163.926C482.27 168.518 483.99 172.536 484.22 175.98C484.679 179.424 484.335 181.949 483.187 183.556C481.352 186.082 478.714 187 475.273 186.311C472.061 185.393 470.684 183.097 471.143 179.424C471.373 177.587 471.946 176.324 472.864 175.635C474.011 174.717 474.814 173.684 475.273 172.536C475.961 171.388 475.617 169.666 474.24 167.37C469.652 160.712 463.802 156.235 456.69 153.939C449.808 151.414 443.155 150.151 436.731 150.151C425.49 150.151 416.198 153.136 408.857 159.105C401.745 165.074 398.189 172.766 398.189 182.179C398.189 189.755 401.286 195.495 407.481 199.398C413.675 203.301 420.672 206.859 428.472 210.074C432.143 211.451 436.157 212.944 440.516 214.551C445.105 215.928 449.349 217.421 453.249 219.028C463.343 222.931 471.831 227.637 478.714 233.147C485.596 238.657 488.923 246.004 488.693 255.188C488.464 267.126 483.532 276.999 473.896 284.805C464.261 292.611 452.216 296.514 437.763 296.514Z" fill="white"/>
<path d="M601.157 296.514C585.557 296.514 573.627 294.562 565.368 290.659C557.109 286.527 551.488 280.787 548.506 273.44C545.753 265.864 544.377 256.91 544.377 246.578V166.337C544.377 162.434 543.688 159.794 542.312 158.416C540.935 157.039 538.527 156.35 535.085 156.35H506.867V150.495H544.377V108.481C544.377 105.037 543.688 102.626 542.312 101.249C540.935 99.6415 538.412 98.8379 534.741 98.8379H522.009V92.9834H550.571V150.495H591.521V156.35H550.571V246.578C550.571 255.991 551.603 264.027 553.668 270.685C555.962 277.114 560.665 282.05 567.777 285.494C575.118 288.708 586.245 290.43 601.157 290.659V296.514Z" fill="white"/>
<path d="M816.956 33.6578C815.02 33.6578 813.079 33.7316 811.144 33.8854C797.494 12.8824 773.972 0 748.809 0C723.647 0 700.125 12.8824 686.474 33.8854C684.539 33.7316 682.586 33.6578 680.651 33.6578C639.676 33.6578 606.343 67.0388 606.343 108.073C606.343 125.945 612.768 143.226 624.428 156.729C634.804 168.744 648.706 177.093 664.015 180.612V265.817C664.009 265.922 664.009 266.027 664.009 266.131C664.009 266.236 664.009 266.34 664.015 266.445V282.662C664.015 287.073 667.596 290.659 672.001 290.659H825.617C830.022 290.659 833.603 287.073 833.603 282.662V180.599C848.918 177.086 862.827 168.732 873.19 156.723C884.856 143.226 891.276 125.951 891.276 108.073C891.276 67.0388 857.937 33.6578 816.956 33.6578ZM808.615 46.5125C808.432 46.5322 808.249 46.5506 808.064 46.5537C808.146 46.5519 808.23 46.5402 808.313 46.5353C808.414 46.5279 808.515 46.5236 808.615 46.5125Z" fill="#9D0208"/>
</svg>
