<svg width="757" height="192" viewBox="0 0 757 192" fill="none" xmlns="http://www.w3.org/2000/svg">
<path d="M502.052 152.398C494.26 152.398 487.53 150.748 481.863 147.448C476.197 144.147 471.828 139.551 468.759 133.657C465.689 127.764 464.095 120.987 463.977 113.326C463.977 105.783 465.512 99.0645 468.582 93.1713C471.769 87.2781 476.138 82.6225 481.686 79.2044C487.353 75.7864 493.847 74.0774 501.166 74.0774C507.424 74.0774 513.149 75.4328 518.344 78.1436C523.539 80.8545 527.435 84.6851 530.032 89.6354C531.449 92.2284 532.216 94.3499 532.334 96C532.452 97.5322 532.098 98.6519 531.272 99.3591C530.209 100.184 529.088 100.361 527.907 99.8895C526.726 99.418 526.018 98.7109 525.782 97.768C525.546 96.7072 525.664 95.9411 526.136 95.4696C526.608 94.8803 527.022 94.291 527.376 93.7017C527.73 92.9945 527.553 91.9337 526.844 90.5193C524.956 86.8656 521.65 83.7422 516.927 81.1492C512.323 78.5562 507.069 77.2597 501.166 77.2597C494.555 77.2597 488.652 78.7919 483.457 81.8564C478.381 84.9208 474.367 89.1639 471.415 94.5856C468.582 100.007 467.165 106.254 467.165 113.326C467.165 120.28 468.582 126.468 471.415 131.89C474.249 137.311 478.263 141.554 483.457 144.619C488.652 147.683 494.85 149.215 502.052 149.215C508.663 149.098 514.448 147.742 519.407 145.149C524.483 142.438 528.32 138.608 530.918 133.657L533.397 135.249C530.445 140.67 526.195 144.913 520.646 147.978C515.216 150.924 509.017 152.398 502.052 152.398Z" fill="#370617"/>
<path d="M556.042 51.4475C554.153 51.4475 552.56 50.8582 551.261 49.6796C550.08 48.3831 549.49 46.7919 549.49 44.9061C549.49 43.1381 550.08 41.7238 551.261 40.663C552.56 39.4843 554.153 38.895 556.042 38.895C557.813 38.895 559.23 39.4843 560.292 40.663C561.473 41.7238 562.063 43.1381 562.063 44.9061C562.063 46.7919 561.473 48.3831 560.292 49.6796C559.23 50.8582 557.813 51.4475 556.042 51.4475ZM539.573 149.215V146.21H550.021C551.91 146.21 553.209 145.856 553.917 145.149C554.626 144.324 554.98 143.028 554.98 141.26V85.2155C554.98 83.4475 554.626 82.2099 553.917 81.5028C553.209 80.6777 551.91 80.2652 550.021 80.2652H543.469V77.2597H558.167V146.21H571.449V149.215H539.573Z" fill="#370617"/>
<path d="M589.771 192V188.994H599.334V85.3923C599.334 83.6243 598.98 82.3867 598.271 81.6796C597.563 80.8545 596.264 80.442 594.375 80.442H587.823V77.4365H602.522V97.5912C605.237 90.6372 609.605 85.0387 615.626 80.7956C621.647 76.4346 628.731 74.2541 636.877 74.2541C644.197 74.2541 650.631 75.9632 656.18 79.3812C661.729 82.7993 666.038 87.4549 669.108 93.3481C672.295 99.1234 673.889 105.783 673.889 113.326C673.889 120.751 672.295 127.411 669.108 133.304C666.038 139.197 661.729 143.853 656.18 147.271C650.631 150.689 644.197 152.398 636.877 152.398C628.731 152.398 621.647 150.276 615.626 146.033C609.605 141.672 605.237 136.015 602.522 129.061V184.044C602.522 185.812 602.876 187.05 603.584 187.757C604.293 188.582 605.591 188.994 607.48 188.994H614.033V192H589.771ZM636.877 149.215C643.489 149.098 649.333 147.506 654.409 144.442C659.486 141.378 663.441 137.193 666.274 131.89C669.226 126.468 670.702 120.28 670.702 113.326C670.702 106.372 669.226 100.243 666.274 94.9392C663.441 89.5175 659.486 85.2744 654.409 82.2099C649.333 79.0276 643.489 77.4365 636.877 77.4365C630.148 77.4365 624.245 79.0276 619.168 82.2099C614.092 85.2744 610.078 89.5175 607.126 94.9392C604.293 100.243 602.876 106.372 602.876 113.326C602.876 120.28 604.293 126.468 607.126 131.89C610.078 137.193 614.092 141.378 619.168 144.442C624.245 147.506 630.148 149.098 636.877 149.215Z" fill="#370617"/>
<path d="M753.635 106.608C753.753 100.95 752.514 95.9411 749.916 91.5801C747.319 87.1013 743.718 83.6243 739.114 81.1492C734.628 78.5562 729.374 77.2597 723.353 77.2597C714.97 77.3775 707.887 80.1473 702.102 85.5691C696.435 90.8729 692.952 97.8269 691.654 106.431L753.635 106.608ZM723.353 152.221C716.623 152.221 710.543 150.571 705.112 147.271C699.8 143.971 695.609 139.433 692.539 133.657C689.469 127.764 687.935 120.987 687.935 113.326C688.053 105.665 689.587 98.8877 692.539 92.9945C695.609 87.1013 699.8 82.5046 705.112 79.2044C710.425 75.7864 716.505 74.0774 723.353 74.0774C729.964 74.0774 735.749 75.4917 740.708 78.3204C745.784 81.0313 749.739 84.8619 752.573 89.8121C755.524 94.6446 757 100.243 757 106.608V109.613L691.299 109.436L691.122 113.326C690.886 119.808 692.126 125.761 694.841 131.182C697.557 136.604 701.394 140.965 706.352 144.265C711.429 147.448 717.096 149.098 723.353 149.215C729.964 149.098 735.513 148.037 739.999 146.033C744.486 143.912 747.791 141.201 749.916 137.901L752.396 139.845C749.916 143.499 746.197 146.505 741.239 148.862C736.28 151.101 730.318 152.221 723.353 152.221Z" fill="#370617"/>
<path d="M0 149.215V146.21H8.85453C12.1602 146.21 13.8131 144.56 13.8131 141.26V35.8895C13.8131 32.4715 12.2193 30.7624 9.03162 30.7624H0V27.7569H45.3352C56.7871 27.7569 65.7006 29.1713 72.0759 32C78.5692 34.8287 83.1145 38.6593 85.7118 43.4917C88.4272 48.2063 89.7849 53.5691 89.7849 59.5801C89.7849 64.6483 88.4863 69.4217 85.8889 73.9006C83.2916 78.2615 79.1595 81.9153 73.4926 84.8619C67.9438 87.6906 60.624 89.2818 51.5334 89.6354L84.8264 146.21H98.4624V149.215H67.1173V146.21H81.1075L47.8145 89.8121H47.1061C40.967 89.8121 35.3591 89.5175 30.2825 88.9282C25.324 88.3389 20.8967 87.6317 17.0007 86.8066V146.033H37.7203V149.215H0ZM47.1061 86.8066C56.787 86.8066 64.461 85.5691 70.1279 83.0939C75.9128 80.5009 80.104 77.1418 82.7013 73.0166C85.2986 68.7735 86.5973 64.2947 86.5973 59.5801C86.5973 54.1584 85.4167 49.326 83.0555 45.0829C80.6943 40.7219 76.5031 37.2449 70.4821 34.6519C64.579 32.0589 56.1968 30.7624 45.3352 30.7624H17.0007V83.8011C20.7786 84.5083 25.1469 85.2155 30.1054 85.9227C35.182 86.512 40.8489 86.8066 47.1061 86.8066Z" fill="#370617"/>
<path d="M175.435 106.608C175.553 100.95 174.313 95.9411 171.716 91.5801C169.118 87.1013 165.517 83.6243 160.913 81.1492C156.427 78.5562 151.173 77.2597 145.152 77.2597C136.77 77.3775 129.686 80.1473 123.901 85.5691C118.234 90.8729 114.751 97.8269 113.453 106.431L175.435 106.608ZM145.152 152.221C138.423 152.221 132.342 150.571 126.912 147.271C121.599 143.971 117.408 139.433 114.338 133.657C111.269 127.764 109.734 120.987 109.734 113.326C109.852 105.665 111.387 98.8877 114.338 92.9945C117.408 87.1013 121.599 82.5046 126.912 79.2044C132.224 75.7864 138.305 74.0774 145.152 74.0774C151.763 74.0774 157.548 75.4917 162.507 78.3204C167.583 81.0313 171.539 84.8619 174.372 89.8121C177.323 94.6446 178.799 100.243 178.799 106.608V109.613L113.099 109.436L112.922 113.326C112.685 119.808 113.925 125.761 116.64 131.182C119.356 136.604 123.193 140.965 128.151 144.265C133.228 147.448 138.895 149.098 145.152 149.215C151.763 149.098 157.312 148.037 161.799 146.033C166.285 143.912 169.591 141.201 171.716 137.901L174.195 139.845C171.716 143.499 167.997 146.505 163.038 148.862C158.08 151.101 152.118 152.221 145.152 152.221Z" fill="#370617"/>
<path d="M225.28 152.221C218.669 152.221 212.766 150.571 207.571 147.271C202.494 143.853 199.602 139.315 198.893 133.657C198.657 131.3 198.716 129.532 199.071 128.354C199.425 127.057 199.897 126.173 200.487 125.702C201.668 124.641 203.026 124.523 204.56 125.348C206.213 126.055 206.744 127.411 206.154 129.414C205.8 130.593 205.21 131.3 204.383 131.536C203.675 131.772 203.085 132.125 202.612 132.597C202.14 133.068 202.081 134.188 202.435 135.956C203.38 139.845 206.095 143.028 210.581 145.503C215.068 147.978 219.967 149.215 225.28 149.215C231.891 149.215 237.44 147.448 241.926 143.912C246.413 140.376 248.597 136.074 248.479 131.006C248.361 126.88 246.826 123.757 243.874 121.635C240.923 119.396 237.322 117.392 233.072 115.624C231.183 114.799 229.058 113.974 226.697 113.149C224.335 112.324 222.21 111.558 220.321 110.851C217.252 109.672 214.3 108.376 211.467 106.961C208.633 105.547 206.331 103.779 204.56 101.657C202.789 99.5359 201.904 96.8251 201.904 93.5249C201.904 87.6317 204.088 82.9171 208.456 79.3812C212.825 75.8453 218.255 74.0774 224.749 74.0774C228.527 74.0774 232.482 74.8435 236.614 76.3757C240.746 77.9079 244.052 80.5009 246.531 84.1547C248.184 86.512 249.069 88.5746 249.187 90.3425C249.423 92.1105 249.246 93.407 248.656 94.232C247.711 95.5285 246.354 96 244.583 95.6464C242.93 95.175 242.222 93.9963 242.458 92.1105C242.576 91.1676 242.871 90.5193 243.343 90.1657C243.934 89.6943 244.347 89.1639 244.583 88.5746C244.937 87.9853 244.76 87.1013 244.052 85.9227C241.69 82.5046 238.68 80.2063 235.02 79.0276C231.478 77.7311 228.054 77.0829 224.749 77.0829C218.964 77.0829 214.182 78.6151 210.404 81.6796C206.745 84.744 204.915 88.6925 204.915 93.5249C204.915 97.4144 206.508 100.361 209.696 102.365C212.884 104.368 216.484 106.195 220.499 107.845C222.388 108.552 224.454 109.319 226.697 110.144C229.058 110.851 231.242 111.617 233.249 112.442C238.444 114.446 242.812 116.862 246.354 119.691C249.896 122.519 251.607 126.291 251.489 131.006C251.371 137.134 248.833 142.203 243.874 146.21C238.916 150.217 232.718 152.221 225.28 152.221Z" fill="#370617"/>
<path d="M309.365 152.221C301.337 152.221 295.198 151.219 290.947 149.215C286.697 147.094 283.805 144.147 282.27 140.376C280.853 136.486 280.145 131.89 280.145 126.586V85.3923C280.145 83.3886 279.791 82.0332 279.082 81.326C278.374 80.6188 277.134 80.2652 275.363 80.2652H260.842V77.2597H280.145V55.6906C280.145 53.9227 279.791 52.6851 279.082 51.9779C278.374 51.1529 277.075 50.7403 275.186 50.7403H268.634V47.7348H283.332V77.2597H304.406V80.2652H283.332V126.586C283.332 131.418 283.864 135.543 284.926 138.961C286.107 142.262 288.527 144.796 292.187 146.564C295.965 148.214 301.691 149.098 309.365 149.215V152.221Z" fill="#370617"/>
<path d="M420.418 17.2789C419.422 17.2789 418.423 17.3168 417.428 17.3957C410.403 6.61341 398.298 0 385.349 0C372.4 0 360.295 6.61341 353.271 17.3957C352.275 17.3168 351.269 17.2789 350.274 17.2789C329.187 17.2789 312.034 34.4156 312.034 55.4813C312.034 64.656 315.34 73.5276 321.341 80.46C326.68 86.6281 333.834 90.9139 341.713 92.7204V136.462C341.709 136.516 341.709 136.57 341.709 136.623C341.709 136.677 341.709 136.731 341.713 136.785V145.11C341.713 147.374 343.556 149.215 345.822 149.215H424.876C427.143 149.215 428.986 147.374 428.986 145.11V92.7141C436.867 90.9107 444.024 86.6218 449.358 80.4568C455.361 73.5276 458.665 64.6592 458.665 55.4813C458.665 34.4156 441.508 17.2789 420.418 17.2789ZM416.126 23.8781C416.032 23.8882 415.938 23.8977 415.843 23.8992C415.885 23.8983 415.928 23.8923 415.971 23.8898C416.023 23.886 416.075 23.8838 416.126 23.8781Z" fill="#FFBA08"/>
</svg>
